<?xml version="1.0" encoding="UTF-8"?>
<svg viewBox="0 0 32 32" xmlns="http://www.w3.org/2000/svg">
  <!-- 배경 원 -->
  <circle cx="16" cy="16" r="15" fill="#4361ee" />
  
  <!-- 저울 받침대 -->
  <rect x="13" y="24" width="6" height="2" rx="1" fill="#ffffff" />
  
  <!-- 저울 중심 기둥 -->
  <rect x="15" y="8" width="2" height="16" rx="1" fill="#ffffff" />
  
  <!-- 저울 가로대 -->
  <rect x="7" y="8" width="18" height="2" rx="1" fill="#ffffff" />
  
  <!-- 왼쪽 저울 줄 -->
  <line x1="9" y1="9" x2="9" y2="16" stroke="#ffffff" stroke-width="1.2" />
  
  <!-- 오른쪽 저울 줄 -->
  <line x1="23" y1="9" x2="23" y2="16" stroke="#ffffff" stroke-width="1.2" />
  
  <!-- 왼쪽 저울 접시에 자동차 -->
  <path d="M5,16 L13,16 C13,16 13,18 11,18 L7,18 C5,18 5,16 5,16 Z" fill="#ffffff" />
  <path d="M6,16 C6,14 7,14 8,14 L10,14 C11,14 12,14 12,16" fill="#ffffff" />
  <circle cx="7" cy="18" r="1.2" fill="#ffffff" stroke="#4361ee" stroke-width="0.5" />
  <circle cx="11" cy="18" r="1.2" fill="#ffffff" stroke="#4361ee" stroke-width="0.5" />
  
  <!-- 오른쪽 저울 접시에 자동차 -->
  <path d="M19,16 L27,16 C27,16 27,18 25,18 L21,18 C19,18 19,16 19,16 Z" fill="#ffffff" />
  <path d="M20,16 C20,14 21,14 22,14 L24,14 C25,14 26,14 26,16" fill="#ffffff" />
  <circle cx="21" cy="18" r="1.2" fill="#ffffff" stroke="#4361ee" stroke-width="0.5" />
  <circle cx="25" cy="18" r="1.2" fill="#ffffff" stroke="#4361ee" stroke-width="0.5" />
</svg>